<?xml version="1.0" standalone="no"?>
<!DOCTYPE svg PUBLIC "-//W3C//DTD SVG 20010904//EN"
 "http://www.w3.org/TR/2001/REC-SVG-20010904/DTD/svg10.dtd">
<svg version="1.0" xmlns="http://www.w3.org/2000/svg"
 width="612.000000pt" height="612.000000pt" viewBox="0 0 612.000000 612.000000"
 preserveAspectRatio="xMidYMid meet">

<g transform="translate(0.000000,612.000000) scale(0.100000,-0.100000)"
fill="#000000" stroke="none">
<path d="M2982 4523 c-18 -2 -30 -8 -27 -13 3 -4 -3 -6 -13 -3 -41 10 -232
-102 -216 -128 3 -5 0 -8 -7 -7 -18 4 -86 -90 -110 -152 -30 -81 -40 -200 -37
-448 l3 -222 -255 0 c-140 0 -284 -5 -320 -10 -274 -43 -464 -329 -395 -595
49 -187 210 -336 395 -365 36 -5 179 -10 318 -10 l252 0 0 -257 c0 -298 7
-352 55 -449 87 -177 280 -287 475 -271 186 15 349 141 422 325 20 53 22 78
27 356 l6 298 245 0 c135 0 274 4 310 9 67 9 215 73 205 89 -2 4 3 14 13 21
15 13 16 12 3 -3 -7 -10 -9 -18 -3 -18 21 0 119 119 150 183 51 103 62 253 26
357 -25 73 -96 178 -145 215 -22 17 -45 35 -52 40 -26 23 -100 56 -113 51 -8
-3 -14 0 -14 6 0 6 -6 5 -17 -3 -9 -8 -14 -9 -10 -2 15 24 -95 34 -350 32
l-252 -1 -4 289 c-4 304 -6 320 -57 427 -45 95 -195 220 -291 242 -93 22 -142
26 -217 17z m469 -246 c-10 -9 -11 -8 -5 6 3 10 9 15 12 12 3 -3 0 -11 -7 -18z
m966 -952 c0 -8 -4 -12 -9 -9 -5 3 -6 10 -3 15 9 13 12 11 12 -6z"/>
</g>
</svg>
